# xmcd
#
# Track frame offsets: 
#        150
#        21601
#        40569
#        65986
#        86224
#        108489
#        134321
#        158281
#        179071
#        197639
#
# Disc length: 2919 seconds
#
# Revision: 0
# Processed by: cddbd v1.5.2PL0 Copyright (c) Steve Scherf et al.
# Submitted via: ExactAudioCopy v0.99pb5
#
DISCID=8c0b650a
DTITLE=Don Ho and Nhu Quynh - Tim Vo - TNCD 190
DYEAR=1999
DGENRE=Blues
TTITLE0=Chuyen Lua doi
TTITLE1=Tinh Co
TTITLE2=Nua Doi Yeu Em
TTITLE3=U Tim
TTITLE4=Nu Hong Mong Manh
TTITLE5=Tim Vo
TTITLE6=Em Di Roi
TTITLE7=Vuon Yeu
TTITLE8=Bai Ca Ky Niem
TTITLE9=Trai Tim Khong Ngu Yen
EXTD=
EXTT0=
EXTT1=
EXTT2=
EXTT3=
EXTT4=
EXTT5=
EXTT6=
EXTT7=
EXTT8=
EXTT9=
PLAYORDER=
